<?xml version="1.0" standalone="no"?>
<!DOCTYPE svg PUBLIC "-//W3C//DTD SVG 20010904//EN"
 "http://www.w3.org/TR/2001/REC-SVG-20010904/DTD/svg10.dtd">
<svg version="1.0" xmlns="http://www.w3.org/2000/svg"
 width="700.000000pt" height="700.000000pt" viewBox="0 0 700.000000 700.000000"
 preserveAspectRatio="xMidYMid meet">
<metadata>
Created by potrace 1.14, written by Peter Selinger 2001-2017
</metadata>
<g transform="translate(0.000000,700.000000) scale(0.100000,-0.100000)"
fill="#000000" stroke="none">
<path d="M3994 6760 c-42 -9 -79 -38 -103 -80 -19 -34 -23 -55 -36 -185 -3
-33 -8 -69 -10 -80 -2 -11 -7 -45 -10 -75 -3 -30 -8 -67 -10 -81 -3 -14 -7
-51 -10 -81 -3 -30 -7 -64 -9 -75 -3 -11 -7 -44 -10 -74 -6 -52 -14 -108 -21
-159 -2 -14 -9 -63 -15 -110 -5 -47 -13 -103 -16 -125 -3 -22 -7 -53 -8 -70
-2 -16 -9 -68 -15 -115 -6 -47 -13 -98 -15 -115 -3 -16 -7 -55 -11 -85 -4 -30
-27 -122 -52 -205 -24 -82 -60 -204 -79 -270 -20 -66 -37 -121 -38 -123 -2 -1
-17 3 -35 9 -18 6 -33 10 -35 8 -2 -2 -45 -152 -96 -334 -51 -181 -95 -335
-97 -342 -3 -8 -13 -8 -36 -2 -18 6 -151 44 -297 85 -146 41 -272 77 -281 80
-11 3 -19 -7 -28 -36 -7 -22 -15 -39 -19 -36 -6 3 -542 143 -582 151 -8 2 -62
21 -120 44 -58 22 -109 41 -113 41 -5 0 -23 6 -40 14 -18 8 -135 54 -262 101
-477 180 -627 244 -730 310 -74 47 -115 58 -163 45 -56 -15 -79 -50 -157 -240
-37 -91 -73 -178 -80 -195 -30 -65 -77 -191 -82 -217 -3 -20 3 -31 26 -47 34
-25 54 -26 70 -7 10 12 16 12 38 1 28 -15 63 -5 63 17 0 7 9 2 20 -9 23 -25
53 -21 68 10 9 18 11 19 11 5 1 -10 9 -22 20 -27 14 -8 23 -6 36 9 15 17 19
17 32 5 23 -23 50 -1 67 53 8 26 19 59 24 73 l11 27 88 -43 c48 -23 201 -98
338 -165 597 -293 687 -335 815 -380 266 -95 424 -150 428 -150 2 0 1 -17 -3
-38 l-6 -39 198 -67 c109 -37 246 -83 306 -103 96 -32 109 -40 129 -72 12 -20
26 -40 30 -46 30 -37 504 -737 520 -766 25 -49 29 -101 37 -576 1 -26 5 -33
21 -33 16 0 20 -7 21 -37 0 -21 2 -83 4 -138 10 -272 27 -889 29 -1025 1 -64
-3 -105 -9 -106 -17 -1 -158 -16 -195 -20 -19 -3 -55 -7 -80 -9 -223 -21 -277
-34 -316 -77 -34 -36 -19 -74 40 -106 27 -14 78 -16 386 -16 195 0 368 3 383
7 40 11 93 70 101 112 7 36 10 100 20 445 10 317 18 574 21 665 2 50 4 138 5
198 1 59 6 107 11 107 5 0 12 0 17 0 4 -1 9 16 12 37 5 38 5 38 19 14 8 -15
13 -50 12 -91 -3 -129 61 -262 159 -326 22 -15 52 -47 67 -73 53 -90 159 -178
244 -201 60 -17 160 -15 193 2 25 13 32 13 68 -5 64 -32 142 -27 230 15 101
48 165 114 212 220 41 91 68 117 126 125 37 5 40 3 71 -41 18 -25 34 -44 37
-42 7 8 11 144 5 181 -3 21 -21 59 -39 86 -26 39 -30 50 -19 59 17 14 30 65
27 103 -4 46 -38 112 -77 145 -21 19 -35 41 -35 54 0 47 -21 96 -55 129 -20
19 -48 57 -64 84 -59 101 -146 163 -269 191 -39 9 -75 20 -78 25 -7 11 3 11
45 -1 29 -8 34 -7 39 12 6 23 2 23 187 -12 61 -11 124 -23 140 -26 116 -19
188 -39 273 -73 53 -21 169 -67 257 -101 88 -34 164 -65 169 -71 6 -5 11 -18
13 -30 3 -22 31 -65 67 -104 37 -40 83 -138 85 -183 1 -7 11 -17 24 -22 49
-19 75 71 40 142 -7 15 -9 29 -5 32 5 3 69 -33 142 -80 137 -85 157 -93 178
-72 30 30 13 55 -85 129 -54 40 -93 74 -87 76 6 2 61 -21 124 -51 125 -61 155
-62 155 -10 0 27 -9 33 -120 90 -65 34 -121 67 -123 74 -5 14 -3 13 122 -33
97 -36 131 -37 140 -4 8 32 -18 52 -119 93 -110 45 -129 60 -60 49 87 -14 127
-12 139 8 21 33 -7 50 -195 114 -184 63 -225 72 -266 59 -21 -7 -116 39 -546
261 -39 21 -98 38 -312 89 -11 3 -29 7 -40 9 -11 3 -63 15 -115 28 -84 21 -95
26 -92 44 3 19 -11 24 -155 58 -240 56 -303 74 -327 92 -21 16 -176 231 -185
257 -2 6 -7 13 -11 16 -9 7 -351 512 -373 552 l-19 33 66 284 c35 157 62 289
60 293 -3 4 -15 8 -28 8 -12 0 -25 2 -28 5 -3 3 6 56 19 118 85 391 94 435 98
472 2 17 6 75 10 130 3 55 8 125 10 155 2 30 7 98 10 150 3 52 8 120 10 150 2
30 7 93 10 140 7 111 13 203 21 320 4 52 7 109 8 125 1 25 7 32 36 41 19 6 47
8 61 4 56 -16 107 16 92 58 -3 6 2 12 11 12 22 0 41 38 26 54 -8 11 -5 15 14
20 33 8 45 45 20 63 -16 12 -16 13 9 13 33 0 53 31 37 60 -9 17 -8 20 8 20 23
0 41 19 47 49 5 27 -27 61 -57 62 -13 0 -31 2 -41 4 -9 2 -52 6 -95 9 -42 4
-99 9 -127 12 -27 2 -72 7 -100 9 -27 2 -88 7 -135 11 -47 3 -87 7 -90 9 -3 1
-19 -1 -36 -5z m616 -4219 c23 -7 21 -9 -30 -33 -30 -15 -68 -35 -83 -45 -24
-16 -29 -16 -37 -3 -10 17 -3 26 50 64 36 25 58 29 100 17z m-400 -286 c11
-13 8 -22 -22 -53 -20 -20 -45 -52 -57 -71 l-20 -35 2 62 c2 57 4 63 36 87 41
29 44 30 61 10z"/>
</g>
</svg>
